<?xml version="1.0" encoding="UTF-8" standalone="no"?>
<svg
   xmlns:dc="http://purl.org/dc/elements/1.1/"
   xmlns:cc="http://creativecommons.org/ns#"
   xmlns:rdf="http://www.w3.org/1999/02/22-rdf-syntax-ns#"
   xmlns:svg="http://www.w3.org/2000/svg"
   xmlns="http://www.w3.org/2000/svg"
   xmlns:sodipodi="http://sodipodi.sourceforge.net/DTD/sodipodi-0.dtd"
   xmlns:inkscape="http://www.inkscape.org/namespaces/inkscape"
   width="60mm"
   height="30mm"
   viewBox="0 0 60 30"
   version="1.1"
   id="svg8"
   inkscape:version="1.0.2 (1.0.2+r75+1)"
   sodipodi:docname="lec18-fig1.svg">
  <defs
     id="defs2">
    <marker
       id="marker-arrow-0.5308"
       orient="auto-start-reverse"
       refY="0"
       refX="0"
       markerHeight="1.690"
       markerWidth="0.911">
      <g
         transform="scale(2.153529264004019)"
         id="g270">
        <path
           d="M -1.55415,2.0722 C -1.42464,1.29512 0,0.1295 0.38852,0 0,-0.1295 -1.42464,-1.29512 -1.55415,-2.0722"
           style="fill:none;stroke:#000000;stroke-width:0.6;stroke-linecap:round;stroke-linejoin:round;stroke-miterlimit:10;stroke-dasharray:none;stroke-opacity:1"
           inkscape:connector-curvature="0"
           id="path268" />
      </g>
    </marker>
    <marker
       id="marker-arrow-0.5308-3"
       orient="auto-start-reverse"
       refY="0"
       refX="0"
       markerHeight="1.690"
       markerWidth="0.911">
      <g
         transform="scale(2.153529264004019)"
         id="g287">
        <path
           d="M -1.55415,2.0722 C -1.42464,1.29512 0,0.1295 0.38852,0 0,-0.1295 -1.42464,-1.29512 -1.55415,-2.0722"
           style="fill:none;stroke:#000000;stroke-width:0.6;stroke-linecap:round;stroke-linejoin:round;stroke-miterlimit:10;stroke-dasharray:none;stroke-opacity:1"
           inkscape:connector-curvature="0"
           id="path285" />
      </g>
    </marker>
    <marker
       id="marker-arrow-0.5308-6"
       orient="auto-start-reverse"
       refY="0"
       refX="0"
       markerHeight="1.690"
       markerWidth="0.911">
      <g
         transform="scale(2.153529264004019)"
         id="g304">
        <path
           d="M -1.55415,2.0722 C -1.42464,1.29512 0,0.1295 0.38852,0 0,-0.1295 -1.42464,-1.29512 -1.55415,-2.0722"
           style="fill:none;stroke:#000000;stroke-width:0.6;stroke-linecap:round;stroke-linejoin:round;stroke-miterlimit:10;stroke-dasharray:none;stroke-opacity:1"
           inkscape:connector-curvature="0"
           id="path302" />
      </g>
    </marker>
    <marker
       id="marker-arrow-0.5308-7"
       orient="auto-start-reverse"
       refY="0"
       refX="0"
       markerHeight="1.690"
       markerWidth="0.911">
      <g
         transform="scale(2.153529264004019)"
         id="g321">
        <path
           d="M -1.55415,2.0722 C -1.42464,1.29512 0,0.1295 0.38852,0 0,-0.1295 -1.42464,-1.29512 -1.55415,-2.0722"
           style="fill:none;stroke:#000000;stroke-width:0.6;stroke-linecap:round;stroke-linejoin:round;stroke-miterlimit:10;stroke-dasharray:none;stroke-opacity:1"
           inkscape:connector-curvature="0"
           id="path319" />
      </g>
    </marker>
    <marker
       id="marker-arrow-0.5308-5"
       orient="auto-start-reverse"
       refY="0"
       refX="0"
       markerHeight="1.690"
       markerWidth="0.911">
      <g
         transform="scale(2.153529264004019)"
         id="g338">
        <path
           d="M -1.55415,2.0722 C -1.42464,1.29512 0,0.1295 0.38852,0 0,-0.1295 -1.42464,-1.29512 -1.55415,-2.0722"
           style="fill:none;stroke:#000000;stroke-width:0.6;stroke-linecap:round;stroke-linejoin:round;stroke-miterlimit:10;stroke-dasharray:none;stroke-opacity:1"
           inkscape:connector-curvature="0"
           id="path336" />
      </g>
    </marker>
    <marker
       id="marker-arrow-0.5308-35"
       orient="auto-start-reverse"
       refY="0"
       refX="0"
       markerHeight="1.690"
       markerWidth="0.911">
      <g
         transform="scale(2.153529264004019)"
         id="g355">
        <path
           d="M -1.55415,2.0722 C -1.42464,1.29512 0,0.1295 0.38852,0 0,-0.1295 -1.42464,-1.29512 -1.55415,-2.0722"
           style="fill:none;stroke:#000000;stroke-width:0.6;stroke-linecap:round;stroke-linejoin:round;stroke-miterlimit:10;stroke-dasharray:none;stroke-opacity:1"
           inkscape:connector-curvature="0"
           id="path353" />
      </g>
    </marker>
  </defs>
  <sodipodi:namedview
     id="base"
     pagecolor="#ffffff"
     bordercolor="#666666"
     borderopacity="1.0"
     inkscape:pageopacity="0.0"
     inkscape:pageshadow="2"
     inkscape:zoom="5.0206891"
     inkscape:cx="100.88661"
     inkscape:cy="68.288709"
     inkscape:document-units="mm"
     inkscape:current-layer="layer1"
     showgrid="false"
     showborder="true"
     width="200mm"
     showguides="true"
     inkscape:guide-bbox="true"
     inkscape:window-width="1920"
     inkscape:window-height="1040"
     inkscape:window-x="0"
     inkscape:window-y="40"
     inkscape:window-maximized="1"
     inkscape:document-rotation="0">
    <inkscape:grid
       type="xygrid"
       id="grid815"
       units="mm"
       spacingx="10"
       spacingy="10"
       empspacing="4"
       dotted="false" />
  </sodipodi:namedview>
  <metadata
     id="metadata5">
    <rdf:RDF>
      <cc:Work
         rdf:about="">
        <dc:format>image/svg+xml</dc:format>
        <dc:type
           rdf:resource="http://purl.org/dc/dcmitype/StillImage" />
        <dc:title />
      </cc:Work>
    </rdf:RDF>
  </metadata>
  <g
     inkscape:label="Layer 1"
     inkscape:groupmode="layer"
     id="layer1"
     transform="translate(0,-177)">
    <text
       style="font-size:1.35px;font-family:monospace;-inkscape-font-specification:'monospace, Normal';fill:#000000;fill-opacity:1;stroke:none;stroke-width:0.135"
       xml:space="preserve"
       id="text10"
       y="188.84824"
       x="2.6693847"><tspan
         sodipodi:role="line"
         id="tspan8"
         x="2.6693847"
         y="188.84824"
         style="stroke-width:0.135">Artist</tspan><tspan
         sodipodi:role="line"
         x="2.6693847"
         y="190.53574"
         style="stroke-width:0.135"
         id="tspan22">String name</tspan><tspan
         sodipodi:role="line"
         x="2.6693847"
         y="192.22324"
         style="stroke-width:0.135"
         id="tspan24">int yob</tspan><tspan
         sodipodi:role="line"
         x="2.6693847"
         y="193.91074"
         style="stroke-width:0.135"
         id="tspan26">ILoPainting paintings</tspan></text>
    <text
       style="font-size:1.4621px;font-family:monospace;-inkscape-font-specification:'monospace, Normal';fill:#000000;fill-opacity:1;stroke:none;stroke-width:0.14621"
       xml:space="preserve"
       id="text30"
       y="181.64326"
       x="37.89135"><tspan
         sodipodi:role="line"
         id="tspan28"
         x="37.89135"
         y="181.64326"
         style="stroke-width:0.14621">ILoPainting</tspan></text>
    <text
       style="font-size:1.48489px;font-family:monospace;-inkscape-font-specification:'monospace, Normal';fill:#000000;fill-opacity:1;stroke:none;stroke-width:0.148489"
       xml:space="preserve"
       id="text44"
       y="189.26439"
       x="46.025867"><tspan
         sodipodi:role="line"
         id="tspan42"
         x="46.025867"
         y="189.26439"
         style="stroke-width:0.148489">MtLoPainting</tspan></text>
    <g
       style="fill:#000000;fill-opacity:1"
       id="g923"
       transform="matrix(1.4449759,0,0,1.4449759,1.203314,32.38845)">
      <g
         id="use917"
         transform="matrix(0.26458333,0,0,0.26458333,11.955,200.631)">
        <path
           style="stroke:none"
           d="M 2.0625,-8.296875 0.390625,-8.15625 v 0.34375 c 0.8125,0 0.90625,0.078125 0.90625,0.671875 v 6.25 c 0,0.546875 -0.125,0.546875 -0.90625,0.546875 V 0 c 0.34375,-0.03125 0.921875,-0.03125 1.28125,-0.03125 0.359375,0 0.953125,0 1.296875,0.03125 v -0.34375 c -0.765625,0 -0.90625,0 -0.90625,-0.546875 z m 0,0"
           id="path172" />
      </g>
      <g
         id="use919"
         transform="matrix(0.26458333,0,0,0.26458333,15.206814,200.631)">
        <path
           style="stroke:none"
           d="m 2.078125,-7.359375 c 0,-0.3125 -0.25,-0.59375 -0.578125,-0.59375 -0.3125,0 -0.578125,0.25 -0.578125,0.578125 0,0.359375 0.28125,0.578125 0.578125,0.578125 0.359375,0 0.578125,-0.296875 0.578125,-0.5625 z M 0.4375,-5.140625 v 0.34375 c 0.75,0 0.859375,0.078125 0.859375,0.65625 v 3.25 c 0,0.546875 -0.125,0.546875 -0.90625,0.546875 V 0 c 0.34375,-0.03125 0.90625,-0.03125 1.265625,-0.03125 0.125,0 0.8125,0 1.21875,0.03125 v -0.34375 c -0.765625,0 -0.8125,-0.0625 -0.8125,-0.53125 v -4.390625 z m 0,0"
           id="path176" />
      </g>
      <g
         id="use921"
         transform="matrix(0.26458333,0,0,0.26458333,18.45863,200.631)">
        <path
           style="stroke:none"
           d="m 8.578125,-2.90625 c 0,-1.109375 0,-1.4375 -0.28125,-1.828125 -0.34375,-0.46875 -0.90625,-0.53125 -1.3125,-0.53125 -1,0 -1.5,0.71875 -1.6875,1.171875 -0.171875,-0.921875 -0.8125,-1.171875 -1.5625,-1.171875 -1.171875,0 -1.625,0.984375 -1.71875,1.21875 v -1.21875 l -1.640625,0.125 v 0.34375 c 0.8125,0 0.921875,0.09375 0.921875,0.671875 v 3.234375 c 0,0.546875 -0.140625,0.546875 -0.921875,0.546875 V 0 c 0.3125,-0.03125 0.96875,-0.03125 1.296875,-0.03125 0.34375,0 1,0 1.296875,0.03125 v -0.34375 c -0.75,0 -0.90625,0 -0.90625,-0.546875 v -2.21875 c 0,-1.25 0.828125,-1.921875 1.578125,-1.921875 0.734375,0 0.90625,0.609375 0.90625,1.34375 v 2.796875 c 0,0.546875 -0.140625,0.546875 -0.90625,0.546875 V 0 c 0.296875,-0.03125 0.953125,-0.03125 1.28125,-0.03125 0.34375,0 1,0 1.3125,0.03125 v -0.34375 c -0.765625,0 -0.921875,0 -0.921875,-0.546875 v -2.21875 c 0,-1.25 0.828125,-1.921875 1.578125,-1.921875 0.734375,0 0.90625,0.609375 0.90625,1.34375 v 2.796875 c 0,0.546875 -0.140625,0.546875 -0.90625,0.546875 V 0 c 0.3125,-0.03125 0.953125,-0.03125 1.28125,-0.03125 0.34375,0 1,0 1.3125,0.03125 v -0.34375 c -0.609375,0 -0.90625,0 -0.90625,-0.359375 z m 0,0"
           id="path180" />
      </g>
    </g>
    <g
       style="fill:#000000;fill-opacity:1"
       id="g927"
       transform="matrix(1.4449759,0,0,1.4449759,1.203314,32.38845)">
      <g
         id="use925"
         transform="matrix(0.26458333,0,0,0.26458333,28.212999,202.424)">
        <path
           style="stroke:none"
           d="m 2.328125,-5.296875 c 0,-0.015625 0.03125,-0.109375 0.03125,-0.125 0,-0.03125 -0.03125,-0.109375 -0.125,-0.109375 -0.03125,0 -0.28125,0.03125 -0.46875,0.046875 l -0.4375,0.03125 C 1.140625,-5.4375 1.0625,-5.4375 1.0625,-5.296875 c 0,0.125 0.109375,0.125 0.21875,0.125 0.375,0 0.375,0.046875 0.375,0.109375 0,0.03125 0,0.046875 -0.03125,0.1875 l -1.140625,4.53125 c -0.03125,0.125 -0.03125,0.171875 -0.03125,0.171875 0,0.140625 0.109375,0.25 0.265625,0.25 0.125,0 0.234375,-0.078125 0.296875,-0.1875 0.03125,-0.046875 0.09375,-0.296875 0.125,-0.453125 l 0.1875,-0.71875 c 0.03125,-0.109375 0.109375,-0.421875 0.125,-0.53125 0.125,-0.46875 0.125,-0.484375 0.296875,-0.734375 0.28125,-0.390625 0.65625,-0.75 1.1875,-0.75 0.28125,0 0.453125,0.171875 0.453125,0.546875 0,0.4375 -0.34375,1.34375 -0.484375,1.734375 -0.109375,0.265625 -0.109375,0.3125 -0.109375,0.421875 0,0.453125 0.375,0.671875 0.71875,0.671875 0.78125,0 1.109375,-1.109375 1.109375,-1.21875 C 4.625,-1.21875 4.5625,-1.25 4.5,-1.25 c -0.09375,0 -0.109375,0.0625 -0.140625,0.140625 -0.1875,0.65625 -0.515625,0.96875 -0.828125,0.96875 -0.125,0 -0.1875,-0.078125 -0.1875,-0.265625 0,-0.1875 0.0625,-0.359375 0.140625,-0.5625 0.125,-0.296875 0.46875,-1.21875 0.46875,-1.65625 0,-0.609375 -0.40625,-0.890625 -0.984375,-0.890625 -0.4375,0 -0.859375,0.1875 -1.234375,0.609375 z m 0,0"
           id="path164" />
      </g>
    </g>
    <g
       style="fill:#000000;fill-opacity:1"
       id="g931"
       transform="matrix(1.4449759,0,0,1.4449759,1.203314,32.38845)">
      <g
         id="use929"
         transform="matrix(0.26458333,0,0,0.26458333,33.092999,202.424)">
        <path
           style="stroke:none"
           d="M 6.953125,-1.8125 C 6.6875,-1.609375 6.4375,-1.359375 6.25,-1.0625 c -0.34375,0.515625 -0.4375,1.015625 -0.4375,1.046875 0,0.125 0.109375,0.125 0.1875,0.125 0.09375,0 0.15625,0 0.1875,-0.09375 C 6.390625,-0.875 6.90625,-1.546875 7.859375,-1.875 7.921875,-1.890625 8,-1.90625 8,-1.984375 8,-2.078125 7.921875,-2.09375 7.890625,-2.109375 6.828125,-2.46875 6.359375,-3.21875 6.203125,-3.90625 6.15625,-4.078125 6.15625,-4.09375 6,-4.09375 c -0.078125,0 -0.1875,0 -0.1875,0.125 0,0.015625 0.078125,0.53125 0.4375,1.0625 0.234375,0.328125 0.5,0.578125 0.703125,0.734375 h -6.1875 c -0.125,0 -0.296875,0 -0.296875,0.1875 0,0.171875 0.171875,0.171875 0.296875,0.171875 z m 0,0"
           id="path152" />
      </g>
    </g>
    <g
       style="fill:#000000;fill-opacity:1"
       id="g935"
       transform="matrix(1.4449759,0,0,1.4449759,1.203314,32.38845)">
      <g
         id="use933"
         transform="matrix(0.26458333,0,0,0.26458333,41.562,202.424)">
        <path
           style="stroke:none"
           d="m 3.890625,-2.546875 c 0,-0.84375 -0.078125,-1.359375 -0.34375,-1.875 -0.34375,-0.703125 -1,-0.875 -1.4375,-0.875 -1,0 -1.375,0.75 -1.484375,0.96875 -0.28125,0.578125 -0.296875,1.375 -0.296875,1.78125 0,0.53125 0.015625,1.328125 0.40625,1.96875 0.359375,0.59375 0.953125,0.75 1.375,0.75 0.390625,0 1.0625,-0.125 1.46875,-0.90625 0.296875,-0.578125 0.3125,-1.296875 0.3125,-1.8125 z M 2.109375,-0.0625 C 1.84375,-0.0625 1.296875,-0.1875 1.125,-1.015625 1.03125,-1.46875 1.03125,-2.21875 1.03125,-2.640625 1.03125,-3.1875 1.03125,-3.75 1.125,-4.1875 1.296875,-5 1.90625,-5.078125 2.109375,-5.078125 c 0.265625,0 0.828125,0.140625 0.984375,0.859375 0.09375,0.4375 0.09375,1.046875 0.09375,1.578125 0,0.46875 0,1.1875 -0.09375,1.640625 -0.171875,0.828125 -0.71875,0.9375 -0.984375,0.9375 z m 0,0"
           id="path148" />
      </g>
    </g>
    <g
       style="fill:#000000;fill-opacity:1"
       id="g939"
       transform="matrix(1.4449759,0,0,1.4449759,1.203314,32.38845)">
      <g
         id="use937"
         transform="matrix(0.26458333,0,0,0.26458333,49.481998,194.933)">
        <path
           style="stroke:none"
           d="m 3.046875,-3.171875 h 0.75 c 0.15625,0 0.25,0 0.25,-0.15625 C 4.046875,-3.4375 3.9375,-3.4375 3.8125,-3.4375 H 3.09375 c 0.140625,-0.71875 0.21875,-1.171875 0.296875,-1.53125 0.03125,-0.125 0.046875,-0.21875 0.171875,-0.3125 0.109375,-0.09375 0.171875,-0.109375 0.25,-0.109375 0.125,0 0.25,0.03125 0.359375,0.09375 -0.046875,0.015625 -0.09375,0.03125 -0.125,0.0625 -0.140625,0.078125 -0.234375,0.21875 -0.234375,0.375 0,0.1875 0.140625,0.296875 0.3125,0.296875 0.234375,0 0.453125,-0.203125 0.453125,-0.484375 0,-0.375 -0.390625,-0.5625 -0.765625,-0.5625 -0.28125,0 -0.78125,0.125 -1.03125,0.859375 C 2.703125,-4.5625 2.703125,-4.546875 2.5,-3.4375 H 1.890625 c -0.15625,0 -0.25,0 -0.25,0.15625 0,0.109375 0.109375,0.109375 0.234375,0.109375 H 2.453125 L 1.875,-0.078125 C 1.71875,0.71875 1.609375,1.40625 1.171875,1.40625 c -0.015625,0 -0.1875,0 -0.328125,-0.09375 0.359375,-0.09375 0.359375,-0.421875 0.359375,-0.4375 0,-0.1875 -0.140625,-0.296875 -0.3125,-0.296875 -0.21875,0 -0.453125,0.1875 -0.453125,0.484375 0,0.34375 0.34375,0.5625 0.734375,0.5625 0.5,0 0.828125,-0.515625 0.9375,-0.703125 0.28125,-0.53125 0.46875,-1.53125 0.484375,-1.609375 z m 0,0"
           id="path160" />
      </g>
    </g>
    <g
       style="fill:#000000;fill-opacity:1"
       id="g943"
       transform="matrix(1.4449759,0,0,1.4449759,1.203314,32.38845)">
      <g
         id="use941"
         transform="matrix(0.26458333,0,0,0.26458333,54.429001,194.933)">
        <path
           style="stroke:none"
           d="m 2.65625,1.984375 c 0.0625,0 0.15625,0 0.15625,-0.09375 0,-0.03125 0,-0.03125 -0.109375,-0.140625 -1.09375,-1.03125 -1.359375,-2.5 -1.359375,-3.734375 0,-2.296875 0.9375,-3.375 1.34375,-3.75 0.125,-0.09375 0.125,-0.109375 0.125,-0.140625 0,-0.046875 -0.03125,-0.09375 -0.109375,-0.09375 -0.125,0 -0.53125,0.40625 -0.59375,0.46875 -1.0625,1.125 -1.28125,2.546875 -1.28125,3.515625 0,1.78125 0.734375,3.21875 1.828125,3.96875 z m 0,0"
           id="path144" />
      </g>
    </g>
    <g
       style="fill:#000000;fill-opacity:1"
       id="g947"
       transform="matrix(1.4449759,0,0,1.4449759,1.203314,32.38845)">
      <g
         id="use945"
         transform="matrix(0.26458333,0,0,0.26458333,57.722,194.933)">
        <path
           style="stroke:none"
           d="M 4,-3.171875 C 3.640625,-3.09375 3.625,-2.78125 3.625,-2.75 c 0,0.171875 0.140625,0.296875 0.3125,0.296875 0.171875,0 0.4375,-0.140625 0.4375,-0.484375 0,-0.453125 -0.5,-0.578125 -0.796875,-0.578125 C 3.21875,-3.515625 2.90625,-3.25 2.71875,-2.9375 2.546875,-3.359375 2.140625,-3.515625 1.8125,-3.515625 c -0.875,0 -1.359375,1 -1.359375,1.21875 0,0.078125 0.0625,0.109375 0.125,0.109375 0.09375,0 0.109375,-0.046875 0.125,-0.140625 0.1875,-0.578125 0.671875,-0.96875 1.078125,-0.96875 0.3125,0 0.46875,0.234375 0.46875,0.515625 C 2.25,-2.625 2.15625,-2.25 2.09375,-2 c -0.0625,0.234375 -0.234375,0.9375 -0.28125,1.09375 -0.109375,0.421875 -0.390625,0.765625 -0.75,0.765625 -0.03125,0 -0.234375,0 -0.40625,-0.109375 0.359375,-0.09375 0.359375,-0.421875 0.359375,-0.4375 0,-0.1875 -0.140625,-0.296875 -0.3125,-0.296875 -0.21875,0 -0.453125,0.1875 -0.453125,0.484375 0,0.375 0.390625,0.578125 0.796875,0.578125 0.421875,0 0.71875,-0.3125 0.859375,-0.578125 0.1875,0.390625 0.546875,0.578125 0.9375,0.578125 0.859375,0 1.34375,-1 1.34375,-1.21875 C 4.1875,-1.21875 4.125,-1.25 4.0625,-1.25 c -0.09375,0 -0.109375,0.0625 -0.140625,0.140625 -0.15625,0.53125 -0.609375,0.96875 -1.0625,0.96875 -0.265625,0 -0.453125,-0.171875 -0.453125,-0.515625 0,-0.15625 0.046875,-0.34375 0.15625,-0.78125 0.046875,-0.25 0.21875,-0.9375 0.265625,-1.09375 0.109375,-0.421875 0.390625,-0.765625 0.75,-0.765625 0.046875,0 0.25,0 0.421875,0.125 z m 0,0"
           id="path156" />
      </g>
    </g>
    <g
       style="fill:#000000;fill-opacity:1"
       id="g951"
       transform="matrix(1.4449759,0,0,1.4449759,1.203314,32.38845)">
      <g
         id="use949"
         transform="matrix(0.26458333,0,0,0.26458333,62.488998,194.933)">
        <path
           style="stroke:none"
           d="m 2.46875,-1.984375 c 0,-0.765625 -0.140625,-1.671875 -0.625,-2.609375 -0.390625,-0.734375 -1.125,-1.375 -1.265625,-1.375 -0.078125,0 -0.09375,0.046875 -0.09375,0.09375 0,0.03125 0,0.046875 0.09375,0.140625 1.109375,1.0625 1.359375,2.515625 1.359375,3.75 C 1.9375,0.296875 1,1.375 0.59375,1.75 0.484375,1.84375 0.484375,1.859375 0.484375,1.890625 c 0,0.046875 0.015625,0.09375 0.09375,0.09375 0.125,0 0.53125,-0.40625 0.59375,-0.46875 1.0625,-1.125 1.296875,-2.546875 1.296875,-3.5 z m 0,0"
           id="path140" />
      </g>
    </g>
    <path
       style="fill:none;stroke:#000000;stroke-width:0.690699;stroke-linecap:butt;stroke-linejoin:miter;stroke-miterlimit:10;stroke-opacity:1"
       d="m 72.701355,62.21368 h 23.55427"
       id="path953" />
    <g
       style="fill:#000000;fill-opacity:1"
       id="g957"
       transform="matrix(1.4449759,0,0,1.4449759,1.203314,32.38845)">
      <g
         id="use955"
         transform="matrix(0.26458333,0,0,0.26458333,55.192001,204.754)">
        <path
           style="stroke:none"
           d="m 2.328125,-5.296875 c 0,-0.015625 0.03125,-0.109375 0.03125,-0.125 0,-0.03125 -0.03125,-0.109375 -0.125,-0.109375 -0.03125,0 -0.28125,0.03125 -0.46875,0.046875 l -0.4375,0.03125 C 1.140625,-5.4375 1.0625,-5.4375 1.0625,-5.296875 c 0,0.125 0.109375,0.125 0.21875,0.125 0.375,0 0.375,0.046875 0.375,0.109375 0,0.03125 0,0.046875 -0.03125,0.1875 l -1.140625,4.53125 c -0.03125,0.125 -0.03125,0.171875 -0.03125,0.171875 0,0.140625 0.109375,0.25 0.265625,0.25 0.125,0 0.234375,-0.078125 0.296875,-0.1875 0.03125,-0.046875 0.09375,-0.296875 0.125,-0.453125 l 0.1875,-0.71875 c 0.03125,-0.109375 0.109375,-0.421875 0.125,-0.53125 0.125,-0.46875 0.125,-0.484375 0.296875,-0.734375 0.28125,-0.390625 0.65625,-0.75 1.1875,-0.75 0.28125,0 0.453125,0.171875 0.453125,0.546875 0,0.4375 -0.34375,1.34375 -0.484375,1.734375 -0.109375,0.265625 -0.109375,0.3125 -0.109375,0.421875 0,0.453125 0.375,0.671875 0.71875,0.671875 0.78125,0 1.109375,-1.109375 1.109375,-1.21875 C 4.625,-1.21875 4.5625,-1.25 4.5,-1.25 c -0.09375,0 -0.109375,0.0625 -0.140625,0.140625 -0.1875,0.65625 -0.515625,0.96875 -0.828125,0.96875 -0.125,0 -0.1875,-0.078125 -0.1875,-0.265625 0,-0.1875 0.0625,-0.359375 0.140625,-0.5625 0.125,-0.296875 0.46875,-1.21875 0.46875,-1.65625 0,-0.609375 -0.40625,-0.890625 -0.984375,-0.890625 -0.4375,0 -0.859375,0.1875 -1.234375,0.609375 z m 0,0"
           id="path168" />
      </g>
    </g>
    <text
       style="font-size:1.44641px;font-family:monospace;-inkscape-font-specification:'monospace, Normal';fill:#000000;fill-opacity:1;stroke:none;stroke-width:0.144641"
       xml:space="preserve"
       id="text218"
       y="188.6088"
       x="27.312912"><tspan
         sodipodi:role="line"
         id="tspan216"
         x="27.312912"
         y="188.6088"
         style="stroke-width:0.144641">ConsLoPainting</tspan><tspan
         sodipodi:role="line"
         x="27.312912"
         y="190.41681"
         style="stroke-width:0.144641"
         id="tspan230">Painting first</tspan><tspan
         sodipodi:role="line"
         x="27.312912"
         y="192.22482"
         style="stroke-width:0.144641"
         id="tspan232">ILoPainting rest</tspan></text>
    <text
       style="font-size:1.37941px;font-family:monospace;-inkscape-font-specification:'monospace, Normal';fill:#000000;fill-opacity:1;stroke:none;stroke-width:0.137941"
       xml:space="preserve"
       id="text236"
       y="200.63155"
       x="38.340538"><tspan
         sodipodi:role="line"
         id="tspan234"
         x="38.340538"
         y="200.63155"
         style="stroke-width:0.137941">Painting</tspan><tspan
         sodipodi:role="line"
         x="38.340538"
         y="202.3558"
         style="stroke-width:0.137941"
         id="tspan248">Artist artist</tspan><tspan
         sodipodi:role="line"
         x="38.340538"
         y="204.08008"
         style="stroke-width:0.137941"
         id="tspan250">...</tspan></text>
    <rect
       style="opacity:0.53;fill:black;stroke:black;stroke-width:0.14044083;stroke-linejoin:round;stroke-dasharray:none;fill-opacity:0.12;marker-end:none;marker-start:none;stroke-opacity:1"
       id="rect252"
       width="18.705202"
       height="5.9333653"
       x="1.9077338"
       y="189.08334" />
    <rect
       style="opacity:0.53;fill:#000000;fill-opacity:0.12;stroke:#000000;stroke-width:0.140441;stroke-linejoin:round;stroke-dasharray:none;stroke-opacity:1;marker-start:none;marker-end:none"
       id="rect262"
       width="15.158727"
       height="4.1169343"
       x="26.5987"
       y="188.76781" />
    <rect
       style="opacity:0.53;fill:#000000;fill-opacity:0.12;stroke:#000000;stroke-width:0.140441;stroke-linejoin:round;stroke-dasharray:none;stroke-opacity:1;marker-start:none;marker-end:none"
       id="rect264"
       width="12.214723"
       height="3.9586034"
       x="37.595211"
       y="201.01649" />
    <path
       style="fill:none;stroke:black;stroke-width:0.14044083;stroke-linecap:butt;stroke-linejoin:miter;stroke-opacity:1;fill-opacity:1;marker-end:url(#marker-arrow-0.5308);marker-start:none;stroke-dasharray:none"
       d="m 20.041968,193.36972 c 4.49311,-5.06298 9.020913,-11.07335 16.107007,-11.69284"
       id="path266" />
    <path
       style="fill:none;stroke:black;stroke-width:0.14044083;stroke-linecap:butt;stroke-linejoin:miter;stroke-opacity:1;fill-opacity:1;marker-end:url(#marker-arrow-0.5308);marker-start:none;stroke-dasharray:0.14044083,0.70220417"
       d="m 39.267013,187.06227 c 0.847246,-1.38971 1.391391,-2.87637 2.022856,-4.35019"
       id="path283" />
    <path
       style="fill:none;stroke:black;stroke-width:0.14044083;stroke-linecap:butt;stroke-linejoin:miter;stroke-opacity:1;fill-opacity:1;marker-end:url(#marker-arrow-0.5308);marker-start:none;stroke-dasharray:0.14044083,0.70220417"
       d="m 48.733675,187.44912 c -1.354182,-1.14253 -2.476968,-2.91278 -3.279465,-4.27143"
       id="path300" />
    <path
       style="fill:none;stroke:black;stroke-width:0.14044083;stroke-linecap:butt;stroke-linejoin:miter;stroke-opacity:1;fill-opacity:1;marker-end:url(#marker-arrow-0.5308);marker-start:none;stroke-dasharray:none"
       d="m 26.755714,189.88629 c -6.959935,5.69363 5.796836,9.27587 9.948913,9.58866"
       id="path317" />
    <path
       style="fill:none;stroke:black;stroke-width:0.14044083;stroke-linecap:butt;stroke-linejoin:miter;stroke-opacity:1;fill-opacity:1;marker-end:url(#marker-arrow-0.5308);marker-start:none;stroke-dasharray:none"
       d="m 36.95511,202.03173 c -6.990744,0.56338 -16.922892,0.16322 -21.444907,-5.56463"
       id="path351" />
  </g>
</svg>
