
          <svg xmlns="http://www.w3.org/2000/svg" xmlns:cc="http://creativecommons.org/ns#" xmlns:rdf="http://www.w3.org/1999/02/22-rdf-syntax-ns#" version="1.1" width="491.50006103515625" height="158">
            <defs>
              <style type="text/css">svg {
          background-color: #fff; }
        
        .root text,
        .root tspan {
          font: 12px Arial; }
        
        .root path {
          fill-opacity: 0;
          stroke-width: 2px;
          stroke: #000; }
        
        .root circle {
          fill: #6b6659;
          stroke-width: 2px;
          stroke: #000; }
        
        .anchor text, .any-character text {
          fill: #fff; }
        
        .anchor rect, .any-character rect {
          fill: #6b6659; }
        
        .escape text, .charset-escape text, .literal text {
          fill: #000; }
        
        .escape rect, .charset-escape rect {
          fill: #bada55; }
        
        .literal rect {
          fill: #dae9e5; }
        
        .charset .charset-box {
          fill: #cbcbba; }
        
        .subexp .subexp-label tspan,
        .charset .charset-label tspan,
        .match-fragment .repeat-label tspan {
          font-size: 10px; }
        
        .repeat-label {
          cursor: help; }
        
        .subexp .subexp-label tspan,
        .charset .charset-label tspan {
          dominant-baseline: text-after-edge; }
        
        .subexp .subexp-box {
          stroke: #908c83;
          stroke-dasharray: 6,2;
          stroke-width: 2px;
          fill-opacity: 0; }
        
        .quote {
          fill: #908c83; }
        </style>
            </defs>
            <metadata>
              <rdf:rdf>
                <cc:license rdf:about="http://creativecommons.org/licenses/by/3.0/">
                  <cc:permits rdf:resource="http://creativecommons.org/ns#Reproduction"></cc:permits>
                  <cc:permits rdf:resource="http://creativecommons.org/ns#Distribution"></cc:permits>
                  <cc:requires rdf:resource="http://creativecommons.org/ns#Notice"></cc:requires>
                  <cc:requires rdf:resource="http://creativecommons.org/ns#Attribution"></cc:requires>
                  <cc:permits rdf:resource="http://creativecommons.org/ns#DerivativeWorks"></cc:permits>
                </cc:license>
              </rdf:rdf>
            </metadata>
          <desc>Created with Snap</desc><g class="root" transform="matrix(1,0,0,1,15,10)"><g class="regexp match" transform="matrix(1,0,0,1,10,0)"><path d="M199.1667,82H234.1667M316.83336412353515,82H351.8334"></path><g class="match-fragment subexp" transform="matrix(1,0,0,1,0,0)"><rect class="subexp-box" rx="3" ry="3" transform="matrix(1,0,0,1,0,13)" width="209.1667022705078" height="125"></rect><text x="0" y="0" class="subexp-label" transform="matrix(1,0,0,1,0,13)"><tspan>positive lookahead</tspan></text><g class="regexp match" transform="matrix(1,0,0,1,10,23)"><path d="M31.66666603088379,59H41.6667M76.33336793823241,59H101.3333M139.1666320617676,59H164.1667"></path><g class="match-fragment literal" transform="matrix(1,0,0,1,0,47)"><g class="label"><rect width="31.66666603088379" height="24" rx="3" ry="3"></rect><text x="0" y="0" transform="matrix(1,0,0,1,5,17)"><tspan class="quote">“</tspan><tspan>&lt;h</tspan><tspan class="quote">”</tspan></text></g></g><g class="match-fragment charset" transform="matrix(1,0,0,1,41.6667,0)"><rect class="charset-box" rx="3" ry="3" transform="matrix(1,0,0,1,0,13)" width="34.66666793823242" height="92"></rect><text x="0" y="0" class="charset-label" transform="matrix(1,0,0,1,0,13)"><tspan>One of:</tspan></text><g transform="matrix(1,0,0,1,5,18)"><g class="literal" transform="matrix(1,0,0,1,0,0)"><g class="label"><rect width="24.666666984558105" height="24" rx="3" ry="3"></rect><text x="0" y="0" transform="matrix(1,0,0,1,5,17)"><tspan class="quote">“</tspan><tspan>1</tspan><tspan class="quote">”</tspan></text></g></g><g class="literal" transform="matrix(1,0,0,1,0,29)"><g class="label"><rect width="24.666666984558105" height="24" rx="3" ry="3"></rect><text x="0" y="0" transform="matrix(1,0,0,1,5,17)"><tspan class="quote">“</tspan><tspan>2</tspan><tspan class="quote">”</tspan></text></g></g><g class="literal" transform="matrix(1,0,0,1,0,58)"><g class="label"><rect width="24.666666984558105" height="24" rx="3" ry="3"></rect><text x="0" y="0" transform="matrix(1,0,0,1,5,17)"><tspan class="quote">“</tspan><tspan>3</tspan><tspan class="quote">”</tspan></text></g></g></g></g><g class="match-fragment" transform="matrix(1,0,0,1,86.3333,19)"><path d="M0,40q10,0 10,-10v-20q0,-10 10,-10h27.833332061767578q10,0 10,10v20q0,10 10,10M15,40q-10,0 -10,10v7q0,10 10,10h37.83333206176758q10,0 10,-10v-7q0,-10 -10,-10M62.83333206176758,55l5,-5m-5,5l-5,-5"></path><g class="charset" transform="matrix(1,0,0,1,15,10)"><rect class="charset-box" rx="3" ry="3" transform="matrix(1,0,0,1,0,13)" width="37.83333206176758" height="34"></rect><text x="0" y="0" class="charset-label" transform="matrix(1,0,0,1,0,13)"><tspan>None of:</tspan></text><g transform="matrix(1,0,0,1,6.4167,18)"><g class="literal" transform="matrix(1,0,0,1,0,0)"><g class="label"><rect width="25" height="24" rx="3" ry="3"></rect><text x="0" y="0" transform="matrix(1,0,0,1,5,17)"><tspan class="quote">“</tspan><tspan>&gt;</tspan><tspan class="quote">”</tspan></text></g></g></g></g></g><g class="match-fragment literal" transform="matrix(1,0,0,1,164.1667,47)"><g class="label"><rect width="25" height="24" rx="3" ry="3"></rect><text x="0" y="0" transform="matrix(1,0,0,1,5,17)"><tspan class="quote">“</tspan><tspan>&gt;</tspan><tspan class="quote">”</tspan></text></g></g></g></g><g class="match-fragment" transform="matrix(1,0,0,1,219.1667,60)"><path d="M0,22q10,0 10,-10v-2q0,-10 10,-10h72.66666412353516q10,0 10,10v2q0,10 10,10M10,7l5,5m-5,-5l-5,5M15,22q-10,0 -10,10v2q0,10 10,10h82.66666412353516q10,0 10,-10v-2q0,-10 -10,-10"></path><g class="any-character" transform="matrix(1,0,0,1,15,10)"><g class="label"><rect width="82.66666412353516" height="24"></rect><text x="0" y="0" transform="matrix(1,0,0,1,5,17)"><tspan>any character</tspan></text></g></g></g><g class="match-fragment subexp" transform="matrix(1,0,0,1,341.8334,0)"><rect class="subexp-box" rx="3" ry="3" transform="matrix(1,0,0,1,0,13)" width="99.66667175292969" height="125"></rect><text x="0" y="0" class="subexp-label" transform="matrix(1,0,0,1,0,13)"><tspan>positive lookahead</tspan></text><g class="regexp match" transform="matrix(1,0,0,1,10,23)"><path d="M35,59H45"></path><g class="match-fragment literal" transform="matrix(1,0,0,1,0,47)"><g class="label"><rect width="35" height="24" rx="3" ry="3"></rect><text x="0" y="0" transform="matrix(1,0,0,1,5,17)"><tspan class="quote">“</tspan><tspan>&lt;/h</tspan><tspan class="quote">”</tspan></text></g></g><g class="match-fragment charset" transform="matrix(1,0,0,1,45,0)"><rect class="charset-box" rx="3" ry="3" transform="matrix(1,0,0,1,0,13)" width="34.66666793823242" height="92"></rect><text x="0" y="0" class="charset-label" transform="matrix(1,0,0,1,0,13)"><tspan>One of:</tspan></text><g transform="matrix(1,0,0,1,5,18)"><g class="literal" transform="matrix(1,0,0,1,0,0)"><g class="label"><rect width="24.666666984558105" height="24" rx="3" ry="3"></rect><text x="0" y="0" transform="matrix(1,0,0,1,5,17)"><tspan class="quote">“</tspan><tspan>1</tspan><tspan class="quote">”</tspan></text></g></g><g class="literal" transform="matrix(1,0,0,1,0,29)"><g class="label"><rect width="24.666666984558105" height="24" rx="3" ry="3"></rect><text x="0" y="0" transform="matrix(1,0,0,1,5,17)"><tspan class="quote">“</tspan><tspan>2</tspan><tspan class="quote">”</tspan></text></g></g><g class="literal" transform="matrix(1,0,0,1,0,58)"><g class="label"><rect width="24.666666984558105" height="24" rx="3" ry="3"></rect><text x="0" y="0" transform="matrix(1,0,0,1,5,17)"><tspan class="quote">“</tspan><tspan>3</tspan><tspan class="quote">”</tspan></text></g></g></g></g></g></g></g><path d="M20,82H0M441.5000679382324,82H461.50006103515625"></path><circle cx="0" cy="82" r="5"></circle><circle cx="461.50006103515625" cy="82" r="5"></circle></g></svg>
        