
          <svg xmlns="http://www.w3.org/2000/svg" xmlns:cc="http://creativecommons.org/ns#" xmlns:rdf="http://www.w3.org/1999/02/22-rdf-syntax-ns#" version="1.1" width="347.66668701171875" height="106">
            <defs>
              <style type="text/css">svg {
          background-color: #fff; }
        
        .root text,
        .root tspan {
          font: 12px Arial; }
        
        .root path {
          fill-opacity: 0;
          stroke-width: 2px;
          stroke: #000; }
        
        .root circle {
          fill: #6b6659;
          stroke-width: 2px;
          stroke: #000; }
        
        .anchor text, .any-character text {
          fill: #fff; }
        
        .anchor rect, .any-character rect {
          fill: #6b6659; }
        
        .escape text, .charset-escape text, .literal text {
          fill: #000; }
        
        .escape rect, .charset-escape rect {
          fill: #bada55; }
        
        .literal rect {
          fill: #dae9e5; }
        
        .charset .charset-box {
          fill: #cbcbba; }
        
        .subexp .subexp-label tspan,
        .charset .charset-label tspan,
        .match-fragment .repeat-label tspan {
          font-size: 10px; }
        
        .repeat-label {
          cursor: help; }
        
        .subexp .subexp-label tspan,
        .charset .charset-label tspan {
          dominant-baseline: text-after-edge; }
        
        .subexp .subexp-box {
          stroke: #908c83;
          stroke-dasharray: 6,2;
          stroke-width: 2px;
          fill-opacity: 0; }
        
        .quote {
          fill: #908c83; }
        </style>
            </defs>
            <metadata>
              <rdf:rdf>
                <cc:license rdf:about="http://creativecommons.org/licenses/by/3.0/">
                  <cc:permits rdf:resource="http://creativecommons.org/ns#Reproduction"></cc:permits>
                  <cc:permits rdf:resource="http://creativecommons.org/ns#Distribution"></cc:permits>
                  <cc:requires rdf:resource="http://creativecommons.org/ns#Notice"></cc:requires>
                  <cc:requires rdf:resource="http://creativecommons.org/ns#Attribution"></cc:requires>
                  <cc:permits rdf:resource="http://creativecommons.org/ns#DerivativeWorks"></cc:permits>
                </cc:license>
              </rdf:rdf>
            </metadata>
          <desc>Created with Snap</desc><g class="root" transform="matrix(1,0,0,1,15,10)"><g class="regexp match" transform="matrix(1,0,0,1,10,0)"><path d="M38.333335876464844,49.5H63.3333M145.99996412353516,49.5H181"></path><g class="match-fragment literal" transform="matrix(1,0,0,1,0,37.5)"><g class="label"><rect width="38.33333396911621" height="24" rx="3" ry="3"></rect><text x="0" y="0" transform="matrix(1,0,0,1,5,17)"><tspan class="quote">“</tspan><tspan>&lt;h1</tspan><tspan class="quote">”</tspan></text></g></g><g class="match-fragment" transform="matrix(1,0,0,1,48.3333,27.5)"><path d="M0,22q10,0 10,-10v-2q0,-10 10,-10h72.66666412353516q10,0 10,10v2q0,10 10,10M10,7l5,5m-5,-5l-5,5M15,22q-10,0 -10,10v2q0,10 10,10h82.66666412353516q10,0 10,-10v-2q0,-10 -10,-10"></path><g class="any-character" transform="matrix(1,0,0,1,15,10)"><g class="label"><rect width="82.66666412353516" height="24"></rect><text x="0" y="0" transform="matrix(1,0,0,1,5,17)"><tspan>any character</tspan></text></g></g></g><g class="match-fragment subexp" transform="matrix(1,0,0,1,171,0)"><rect class="subexp-box" rx="3" ry="3" transform="matrix(1,0,0,1,0,13)" width="126.66667175292969" height="73"></rect><text x="0" y="0" class="subexp-label" transform="matrix(1,0,0,1,0,13)"><tspan>positive lookahead</tspan></text><g class="regexp" transform="matrix(1,0,0,1,10,23)"><path d="M0,26.5c10,0 10,-14.5 20,-14.5M106.66667175292969,26.5c-10,0 -10,-14.5 -20,-14.5M0,26.5c10,0 10,14.5 20,14.5M106.66667175292969,26.5c-10,0 -10,14.5 -20,14.5"></path><g class="regexp-matches" transform="matrix(1,0,0,1,20,0)"><path d="M0,12h14.1667M52.50003587646484,12H66.66667175292969M0,41h0M66.66667175292969,41H66.66667175292969"></path><g class="match match-fragment literal" transform="matrix(1,0,0,1,14.1667,0)"><g class="label"><rect width="38.33333396911621" height="24" rx="3" ry="3"></rect><text x="0" y="0" transform="matrix(1,0,0,1,5,17)"><tspan class="quote">“</tspan><tspan>&lt;h1</tspan><tspan class="quote">”</tspan></text></g></g><g class="match match-fragment" transform="matrix(1,0,0,1,0,29)"><g class="label anchor"><rect width="66.66666793823242" height="24"></rect><text x="0" y="0" transform="matrix(1,0,0,1,5,17)"><tspan>End of line</tspan></text></g></g></g></g></g></g><path d="M10,49.5H0M297.6666717529297,49.5H317.66668701171875"></path><circle cx="0" cy="49.5" r="5"></circle><circle cx="317.66668701171875" cy="49.5" r="5"></circle></g></svg>
        